<svg width="52" height="52" viewBox="0 0 52 52" fill="none" xmlns="http://www.w3.org/2000/svg">
<path d="M18.0249 1L8.97485 10.075" stroke="white" stroke-width="2" stroke-miterlimit="10" stroke-linecap="round" stroke-linejoin="round"/>
<path d="M33.9749 1L43.0249 10.075" stroke="white" stroke-width="2" stroke-miterlimit="10" stroke-linecap="round" stroke-linejoin="round"/>
<path d="M1 15.6249C1 10.9999 3.475 10.6249 6.55 10.6249H45.45C48.525 10.6249 51 10.9999 51 15.6249C51 20.9999 48.525 20.6249 45.45 20.6249H6.55C3.475 20.6249 1 20.9999 1 15.6249Z" stroke="white" stroke-width="2"/>
<path d="M20.4 31V39.875" stroke="white" stroke-width="2" stroke-linecap="round"/>
<path d="M31.9003 31V39.875" stroke="white" stroke-width="2" stroke-linecap="round"/>
<path d="M4.75 21L8.275 42.6C9.075 47.45 11 51 18.15 51H33.225C41 51 42.15 47.6 43.05 42.9L47.25 21" stroke="white" stroke-width="2" stroke-linecap="round"/>
</svg>
